<svg width="173" height="24" viewBox="0 0 173 24" fill="none" xmlns="http://www.w3.org/2000/svg">
<path fill-rule="evenodd" clip-rule="evenodd" d="M63.6379 6.38858C63.6379 4.36098 64.3536 2.7889 65.7848 1.67359C67.2148 0.558287 69.3959 0 72.3244 0H81.5526V7.43664H76.1448L75.0295 0.676289C74.2632 0.676289 73.6211 0.777795 73.1022 0.980809C72.5832 1.18382 72.167 1.44266 71.8511 1.7586C71.5352 2.07454 71.3106 2.42347 71.1748 2.80666C71.0391 3.18985 70.9718 3.56162 70.9718 3.92197C70.9718 4.73275 71.2471 5.45979 71.8004 6.10182C72.3523 6.74385 73.0451 7.35797 73.8787 7.94417C74.7123 8.53037 75.6195 9.12165 76.5991 9.71927C77.5799 10.3169 78.4858 10.9818 79.3207 11.7139C80.1544 12.446 80.8471 13.2809 81.3991 14.2148C81.951 15.1499 82.2276 16.2487 82.2276 17.5099C82.2276 19.4259 81.512 20.9294 80.0808 22.0219C78.6495 23.1156 76.4697 23.6612 73.5399 23.6612H63.6379V16.2246H69.0457L70.161 22.9849C71.8727 22.9849 73.0895 22.7312 73.8115 22.2249C74.5322 21.7174 74.8925 20.9688 74.8925 19.9765C74.8925 18.9843 74.6159 18.1913 74.064 17.5264C73.512 16.8615 72.818 16.2423 71.9856 15.6676C71.152 15.0928 70.2448 14.5358 69.2652 13.994C68.2857 13.4522 67.3772 12.8393 66.5436 12.1516C65.7099 11.4639 65.0172 10.6646 64.4652 9.75226C63.9133 8.8387 63.6379 7.71832 63.6379 6.38858ZM86.0823 23.6612V0H102.983V7.43664H97.5754L95.7838 0.676289H93.519V9.87026H100.279V10.5466H93.519V22.9849H95.7838L97.5754 16.2246H102.983V23.6612H86.0823ZM127.657 7.43664V0H106.058V7.43664H111.128L112.919 0.676289H113.122V23.6612H120.559V0.676289H120.795L122.587 7.43664H127.657ZM130.936 16.0216V0H138.372V21.4979C138.372 22.0612 138.541 22.5066 138.88 22.8327C139.217 23.16 139.679 23.3224 140.265 23.3224C140.852 23.3224 141.274 23.1588 141.6 22.8327C141.926 22.5066 142.09 22.0612 142.09 21.4979V0H149.527V16.0216C149.527 17.2168 149.335 18.3029 148.952 19.2837C148.569 20.2646 148.028 21.1033 147.329 21.8024C146.63 22.5015 145.791 23.042 144.81 23.4252C143.83 23.8084 142.742 24 141.548 24H138.912C137.716 24 136.63 23.8084 135.649 23.4252C134.669 23.042 133.83 22.5015 133.131 21.8024C132.432 21.1045 131.891 20.2646 131.508 19.2837C131.125 18.3029 130.933 17.2168 130.933 16.0216H130.936ZM165.683 0H153.785V23.6612H161.221V13.5207H165.683C166.696 13.5207 167.615 13.3634 168.437 13.0474C169.26 12.7315 169.964 12.276 170.55 11.6784C171.136 11.0807 171.587 10.3651 171.903 9.53148C172.218 8.69913 172.376 7.77415 172.376 6.76035C172.376 5.74655 172.218 4.82284 171.903 3.98922C171.587 3.15559 171.136 2.43997 170.55 1.84235C169.964 1.246 169.26 0.789215 168.437 0.473275C167.615 0.157335 166.696 0 165.683 0ZM161.221 12.8444V0.676289H161.39C162.561 0.676289 163.446 1.20032 164.043 2.24837C164.64 3.29516 164.939 4.77716 164.939 6.76035C164.939 8.74354 164.635 10.2535 164.027 11.2901C163.418 12.3267 162.54 12.8444 161.39 12.8444H161.221Z" fill="url(#paint0_linear_299_614)"/>
<g clip-path="url(#clip0_299_614)">
<path fill-rule="evenodd" clip-rule="evenodd" d="M50.7233 14.3339V17.1889V17.1902L58.1422 14.2725H58.16V11.3399H58.1422L50.7233 8.4072V11.2621L54.5289 12.798L50.7233 14.3339ZM43.1733 19.2431L47.5369 4.36829H50.1272L45.7636 19.2431H43.1733ZM7.44354 8.54218V11.3971L3.63515 12.9344L7.44354 14.4798V17.3388L0.0150044 14.4048H0V11.4749H0.0150044L7.44354 8.54218Z" fill="url(#paint1_linear_299_614)"/>
<path fill-rule="evenodd" clip-rule="evenodd" d="M18.3599 8.00068C19.0965 8.86139 19.4852 9.99627 19.4388 11.1584V17.4944H16.8485V11.7409C16.8785 11.0998 16.6862 10.4696 16.307 9.96899C16.1297 9.74938 15.9074 9.57615 15.6577 9.4602C15.4081 9.34562 15.1367 9.29106 14.8652 9.30334C13.2434 9.30334 12.4318 10.4982 12.4318 12.888V17.4944H9.84149V7.09224H12.4318V8.03206C12.8383 7.61193 13.3225 7.28457 13.8518 7.06905C14.3824 6.8549 14.9484 6.75669 15.5145 6.7826C16.0424 6.75941 16.5703 6.8549 17.06 7.06496C17.551 7.27502 17.993 7.5942 18.3585 8.00068H18.3599Z" fill="white"/>
<path fill-rule="evenodd" clip-rule="evenodd" d="M22.7371 2.76688V17.6417H25.3274V2.76688H22.7371Z" fill="white"/>
<path fill-rule="evenodd" clip-rule="evenodd" d="M39.9662 17.0947H37.8056L35.6859 10.9675L33.5471 17.0947H31.3892L27.7581 6.67484H30.5257L32.5663 12.9057L34.6683 6.67484H36.6898L38.7918 12.9276L40.8324 6.67484H43.6L39.9662 17.0947Z" fill="white"/>
</g>
<defs>
<linearGradient id="paint0_linear_299_614" x1="63.6379" y1="11.97" x2="172.376" y2="11.97" gradientUnits="userSpaceOnUse">
<stop stop-color="#635FED"/>
<stop offset="1" stop-color="#54E694"/>
</linearGradient>
<linearGradient id="paint1_linear_299_614" x1="4.08418e-07" y1="11.7695" x2="61.0406" y2="11.7695" gradientUnits="userSpaceOnUse">
<stop stop-color="#8257E5"/>
<stop offset="1" stop-color="#635FED"/>
</linearGradient>
<clipPath id="clip0_299_614">
<rect width="58.1597" height="16.4762" fill="white" transform="translate(0 2.76688)"/>
</clipPath>
</defs>
</svg>
